<svg width="105" height="64" viewBox="0 0 105 64" fill="none" xmlns="http://www.w3.org/2000/svg">
<path d="M12.3008 17.5068C12.3008 17.9756 12.1982 18.3906 11.9932 18.752C11.7979 19.1133 11.5342 19.416 11.2021 19.6602C10.8604 19.9141 10.4551 20.1045 9.98633 20.2314C9.52734 20.3584 9.0293 20.4219 8.49219 20.4219C7.85742 20.4219 7.27148 20.3438 6.73438 20.1875C6.20703 20.0312 5.74805 19.792 5.35742 19.4697C4.95703 19.1572 4.63965 18.7617 4.40527 18.2832C4.18066 17.7949 4.04395 17.2236 3.99512 16.5693H0.479492C0.489258 17.6045 0.694336 18.5176 1.09473 19.3086C1.50488 20.0898 2.05664 20.7734 2.75 21.3594C3.50195 21.9844 4.38574 22.4629 5.40137 22.7949C6.41699 23.1172 7.44727 23.2783 8.49219 23.2783C9.47852 23.2783 10.416 23.1562 11.3047 22.9121C12.1934 22.6582 12.9746 22.2822 13.6484 21.7842C14.3125 21.3057 14.8398 20.7051 15.2305 19.9824C15.6309 19.2598 15.8311 18.4248 15.8311 17.4775C15.8311 16.4521 15.6016 15.5488 15.1426 14.7676C14.6934 13.9766 14.0928 13.2979 13.3408 12.7314C12.7354 12.2822 12.0713 11.9014 11.3486 11.5889C10.6357 11.2666 9.90332 10.998 9.15137 10.7832C8.55566 10.6074 7.98438 10.417 7.4375 10.2119C6.90039 10.0068 6.42188 9.76758 6.00195 9.49414C5.5918 9.2207 5.26465 8.90332 5.02051 8.54199C4.77637 8.1709 4.64941 7.74121 4.63965 7.25293C4.63965 6.79395 4.73242 6.37891 4.91797 6.00781C5.10352 5.63672 5.3623 5.31934 5.69434 5.05566C6.02637 4.80176 6.41699 4.60645 6.86621 4.46973C7.3252 4.32324 7.82324 4.25 8.36035 4.25C8.97559 4.25 9.51758 4.34277 9.98633 4.52832C10.4648 4.7041 10.8701 4.94824 11.2021 5.26074C11.5244 5.58301 11.7734 5.96875 11.9492 6.41797C12.1348 6.85742 12.252 7.3457 12.3008 7.88281H15.7871C15.7871 6.91602 15.5918 6.03711 15.2012 5.24609C14.8203 4.44531 14.2979 3.75684 13.6338 3.18066C12.9697 2.61426 12.1885 2.1748 11.29 1.8623C10.4014 1.54004 9.43945 1.37891 8.4043 1.37891C7.42773 1.37891 6.49512 1.51562 5.60645 1.78906C4.72754 2.05273 3.95605 2.43848 3.29199 2.94629C2.62793 3.46387 2.10059 4.08887 1.70996 4.82129C1.31934 5.54395 1.12402 6.35938 1.12402 7.26758C1.12402 8.10742 1.29004 8.86426 1.62207 9.53809C1.96387 10.2021 2.43262 10.7979 3.02832 11.3252C3.62402 11.8428 4.3418 12.3066 5.18164 12.7168C6.03125 13.127 6.95898 13.4785 7.96484 13.7715C8.61914 13.957 9.20996 14.167 9.7373 14.4014C10.2744 14.626 10.7383 14.8799 11.1289 15.1631C11.5 15.4658 11.7881 15.8076 11.9932 16.1885C12.1982 16.5693 12.3008 17.0088 12.3008 17.5068ZM29.4102 23H32.9844V22.751C32.7891 22.3408 32.6377 21.8525 32.5303 21.2861C32.4326 20.71 32.3838 20.0654 32.3838 19.3525V12.3066C32.3838 11.4082 32.2178 10.6172 31.8857 9.93359C31.5537 9.24023 31.0947 8.66895 30.5088 8.21973C29.9229 7.77051 29.2246 7.43359 28.4141 7.20898C27.6133 6.97461 26.749 6.85742 25.8213 6.85742C24.7861 6.85742 23.8633 6.99414 23.0527 7.26758C22.252 7.53125 21.5732 7.89258 21.0166 8.35156C20.46 8.80078 20.0352 9.31836 19.7422 9.9043C19.4492 10.4902 19.2979 11.1006 19.2881 11.7354H22.8037C22.8037 11.4326 22.8574 11.1494 22.9648 10.8857C23.082 10.6123 23.2578 10.3828 23.4922 10.1973C23.7266 9.99219 24.0195 9.83105 24.3711 9.71387C24.7324 9.59668 25.1523 9.53809 25.6309 9.53809C26.1582 9.53809 26.6221 9.60645 27.0225 9.74316C27.4326 9.87012 27.7793 10.0557 28.0625 10.2998C28.3262 10.5439 28.5264 10.832 28.6631 11.1641C28.8096 11.4961 28.8828 11.8672 28.8828 12.2773V13.3467H26.334C25.1914 13.3467 24.166 13.4541 23.2578 13.6689C22.3594 13.8838 21.6025 14.1963 20.9873 14.6064C20.3232 15.0459 19.8154 15.6025 19.4639 16.2764C19.1221 16.9404 18.9512 17.707 18.9512 18.5762C18.9512 19.25 19.083 19.8799 19.3467 20.4658C19.6201 21.042 19.9961 21.5352 20.4746 21.9453C20.9629 22.3652 21.5439 22.6973 22.2178 22.9414C22.9014 23.1758 23.6533 23.293 24.4736 23.293C24.9814 23.293 25.4551 23.2441 25.8945 23.1465C26.334 23.0488 26.7441 22.9121 27.125 22.7363C27.5059 22.5703 27.8477 22.375 28.1504 22.1504C28.4629 21.916 28.7412 21.6719 28.9854 21.418C29.0342 21.7207 29.0879 22.0137 29.1465 22.2969C29.2148 22.5703 29.3027 22.8047 29.4102 23ZM25.1475 20.4805C24.6982 20.4805 24.3076 20.4268 23.9756 20.3193C23.6436 20.2021 23.3652 20.0459 23.1406 19.8506C22.916 19.6553 22.7451 19.4209 22.6279 19.1475C22.5107 18.8643 22.4521 18.5615 22.4521 18.2393C22.4521 17.8486 22.5205 17.4971 22.6572 17.1846C22.8037 16.8721 23.0234 16.6035 23.3164 16.3789C23.6484 16.1152 24.0928 15.915 24.6494 15.7783C25.2061 15.6318 25.8652 15.5586 26.627 15.5586H28.8828V18.4883C28.7559 18.7422 28.5752 18.9863 28.3408 19.2207C28.1064 19.4551 27.8281 19.665 27.5059 19.8506C27.1836 20.0361 26.8223 20.1875 26.4219 20.3047C26.0312 20.4219 25.6064 20.4805 25.1475 20.4805ZM44.2051 20.4805C43.4727 20.4805 42.8623 20.334 42.374 20.041C41.8857 19.748 41.5 19.3623 41.2168 18.8838C40.9238 18.4053 40.7139 17.8584 40.5869 17.2432C40.4697 16.6182 40.4111 15.9834 40.4111 15.3389V14.8262C40.4111 14.1914 40.4697 13.5664 40.5869 12.9512C40.7139 12.3359 40.9238 11.7891 41.2168 11.3105C41.5098 10.832 41.8955 10.4463 42.374 10.1533C42.8623 9.85059 43.4727 9.69922 44.2051 9.69922C44.6836 9.69922 45.1279 9.78223 45.5381 9.94824C45.958 10.1143 46.3193 10.3389 46.6221 10.6221C46.915 10.9053 47.1396 11.2373 47.2959 11.6182C47.4619 11.999 47.5449 12.4043 47.5449 12.834H50.8408C50.8506 11.9551 50.6895 11.1494 50.3574 10.417C50.0352 9.68457 49.5811 9.05469 48.9951 8.52734C48.4092 8 47.7061 7.58984 46.8857 7.29688C46.0752 7.00391 45.1914 6.85742 44.2344 6.85742C43.0234 6.85742 41.959 7.07227 41.041 7.50195C40.1328 7.92188 39.3711 8.49316 38.7559 9.21582C38.1406 9.93848 37.6768 10.7832 37.3643 11.75C37.0615 12.7168 36.9102 13.7422 36.9102 14.8262V15.3389C36.9102 16.4326 37.0664 17.4629 37.3789 18.4297C37.6914 19.3867 38.1504 20.2266 38.7559 20.9492C39.3711 21.6719 40.1328 22.248 41.041 22.6777C41.959 23.0977 43.0283 23.3076 44.249 23.3076C45.1279 23.3076 45.9629 23.166 46.7539 22.8828C47.5547 22.5898 48.2627 22.1943 48.8779 21.6963C49.4834 21.1982 49.9619 20.6123 50.3135 19.9385C50.6748 19.2549 50.8506 18.5273 50.8408 17.7559H47.5449C47.5449 18.1562 47.4521 18.5225 47.2666 18.8545C47.0908 19.1865 46.8516 19.4746 46.5488 19.7188C46.2363 19.9629 45.875 20.1533 45.4648 20.29C45.0645 20.417 44.6445 20.4805 44.2051 20.4805ZM58.8242 9.40625V0.5H55.3232V23H58.8242V11.5303C58.9902 11.2764 59.1807 11.0469 59.3955 10.8418C59.6201 10.6367 59.8594 10.4609 60.1133 10.3145C60.416 10.1289 60.748 9.9873 61.1094 9.88965C61.4805 9.79199 61.8711 9.74316 62.2812 9.74316C62.8086 9.74316 63.2725 9.81641 63.6729 9.96289C64.083 10.0996 64.4297 10.3145 64.7129 10.6074C64.9863 10.8809 65.1914 11.2373 65.3281 11.6768C65.4746 12.1162 65.5479 12.6289 65.5479 13.2148V23H69.0488V13.2441C69.0488 12.1211 68.9121 11.1592 68.6387 10.3584C68.375 9.54785 67.999 8.88379 67.5107 8.36621C67.0225 7.84863 66.4316 7.46777 65.7383 7.22363C65.0547 6.97949 64.2979 6.85742 63.4678 6.85742C62.8721 6.85742 62.3057 6.94531 61.7686 7.12109C61.2412 7.28711 60.7578 7.53125 60.3184 7.85352C60.0352 8.04883 59.7666 8.27832 59.5127 8.54199C59.2588 8.80566 59.0293 9.09375 58.8242 9.40625ZM74.1465 7.15039V10.0654H79.0244V20.0996H74.1465V23H87.2129V20.0996H82.5547V7.15039H74.1465ZM78.7021 3.04883C78.7021 3.41992 78.79 3.74707 78.9658 4.03027C79.1514 4.30371 79.4199 4.49414 79.7715 4.60156C80.1133 4.70898 80.4258 4.7334 80.709 4.6748C80.9922 4.61621 81.2363 4.49414 81.4414 4.30859C81.8516 4.20117 82.1641 3.99121 82.3789 3.67871C82.5938 3.35645 82.667 2.98047 82.5986 2.55078C82.5498 2.13086 82.3594 1.78906 82.0273 1.52539C81.7051 1.25195 81.2803 1.11523 80.7529 1.11523C80.4404 1.11523 80.1572 1.16406 79.9033 1.26172C79.6592 1.34961 79.4492 1.47656 79.2734 1.64258C79.0879 1.81836 78.9463 2.02832 78.8486 2.27246C78.751 2.50684 78.7021 2.76563 78.7021 3.04883ZM98.3896 3.2832H94.874V7.15039H91.0361V9.77246H94.874V17.5654C94.874 18.5811 95.0059 19.4502 95.2695 20.1729C95.543 20.8955 95.9189 21.4912 96.3975 21.96C96.876 22.4189 97.4473 22.7607 98.1113 22.9854C98.7852 23.2002 99.5225 23.3076 100.323 23.3076C100.763 23.3076 101.202 23.2832 101.642 23.2344C102.091 23.1953 102.521 23.1367 102.931 23.0586C103.341 22.9805 103.722 22.8877 104.073 22.7803C104.435 22.6631 104.742 22.5264 104.996 22.3701L104.615 19.9531C104.439 19.9922 104.22 20.041 103.956 20.0996C103.702 20.1484 103.424 20.1924 103.121 20.2314C102.828 20.2803 102.521 20.3193 102.198 20.3486C101.876 20.3779 101.563 20.3926 101.261 20.3926C100.841 20.3926 100.455 20.3438 100.104 20.2461C99.752 20.1484 99.4492 19.9824 99.1953 19.748C98.9414 19.5234 98.7412 19.2158 98.5947 18.8252C98.458 18.4248 98.3896 17.9316 98.3896 17.3457V9.77246H104.352V7.15039H98.3896V3.2832ZM5.02051 60.0996V41.6719H1.49023V63H15.2012V60.0996H5.02051ZM29.6738 63H32.8525V47.1504H29.3369V58.3711C29.2002 58.6641 29.0342 58.9326 28.8389 59.1768C28.6436 59.4111 28.4189 59.6162 28.165 59.792C27.8623 59.9873 27.5107 60.1436 27.1104 60.2607C26.71 60.3682 26.2559 60.4219 25.748 60.4219C25.2598 60.4219 24.835 60.3584 24.4736 60.2314C24.1123 60.1045 23.8145 59.8896 23.5801 59.5869C23.3457 59.2939 23.1748 58.9033 23.0674 58.415C22.96 57.917 22.9062 57.3018 22.9062 56.5693V47.1504H19.4053V56.54C19.4053 57.7314 19.5371 58.7568 19.8008 59.6162C20.0645 60.4658 20.4355 61.1641 20.9141 61.7109C21.4023 62.2578 21.9834 62.6631 22.6572 62.9268C23.3408 63.1807 24.0977 63.3076 24.9277 63.3076C25.875 63.3076 26.7344 63.0879 27.5059 62.6484C28.2773 62.1992 28.9316 61.5791 29.4688 60.7881L29.6738 63ZM39.2979 47.1504H36.251V63H39.4736V50.8271C39.5322 50.6807 39.5957 50.5488 39.6641 50.4316C39.7422 50.3145 39.8301 50.2119 39.9277 50.124C40.0547 49.9971 40.2061 49.9043 40.3818 49.8457C40.5674 49.7773 40.7773 49.7432 41.0117 49.7432C41.2266 49.7432 41.417 49.7725 41.583 49.8311C41.7588 49.8896 41.9102 49.9824 42.0371 50.1094C42.1641 50.2363 42.2568 50.4121 42.3154 50.6367C42.3838 50.8516 42.418 51.1152 42.418 51.4277V63H45.582V51.2373C45.582 51.1396 45.582 51.0664 45.582 51.0176C45.582 50.959 45.582 50.9102 45.582 50.8711C45.6211 50.7051 45.6797 50.5586 45.7578 50.4316C45.8359 50.2949 45.9336 50.1777 46.0508 50.0801C46.1777 49.9727 46.3242 49.8896 46.4902 49.8311C46.6562 49.7725 46.8564 49.7432 47.0908 49.7432C47.2959 49.7432 47.4863 49.7725 47.6621 49.8311C47.8477 49.8896 48.0039 49.9824 48.1309 50.1094C48.2578 50.2461 48.3555 50.4268 48.4238 50.6514C48.4922 50.8662 48.5264 51.1299 48.5264 51.4424V63H51.749V51.4717C51.749 50.6416 51.6611 49.9336 51.4854 49.3477C51.3193 48.752 51.0801 48.2686 50.7676 47.8975C50.4551 47.5459 50.084 47.2871 49.6543 47.1211C49.2344 46.9453 48.7705 46.8574 48.2627 46.8574C47.8721 46.8574 47.5107 46.9062 47.1787 47.0039C46.8564 47.1016 46.5635 47.2383 46.2998 47.4141C46.0947 47.5508 45.9043 47.7168 45.7285 47.9121C45.5527 48.1074 45.3965 48.3174 45.2598 48.542C45.1621 48.2979 45.0449 48.083 44.9082 47.8975C44.7715 47.7021 44.6152 47.5361 44.4395 47.3994C44.2148 47.2139 43.9463 47.0771 43.6338 46.9893C43.3213 46.9014 42.9697 46.8574 42.5791 46.8574C41.8271 46.8574 41.1826 47.0381 40.6455 47.3994C40.1182 47.7607 39.7031 48.2588 39.4004 48.8936L39.2979 47.1504ZM69.2539 55.2363V54.9287C69.2539 54.0303 69.1709 53.1807 69.0049 52.3799C68.8486 51.5791 68.6143 50.8516 68.3018 50.1973C68.0674 49.7285 67.7939 49.2988 67.4814 48.9082C67.1787 48.5078 66.832 48.1709 66.4414 47.8975C65.9824 47.5654 65.4648 47.3115 64.8887 47.1357C64.3223 46.9502 63.6973 46.8574 63.0137 46.8574C62.4961 46.8574 62.0127 46.9111 61.5635 47.0186C61.124 47.1162 60.7188 47.2676 60.3477 47.4727C60.0645 47.6289 59.8008 47.8096 59.5566 48.0146C59.3125 48.2197 59.0879 48.4492 58.8828 48.7031V40.5H55.3818V63H58.5459L58.707 61.2715C58.8828 61.4863 59.0635 61.6865 59.249 61.8721C59.4443 62.0479 59.6494 62.2139 59.8643 62.3701C60.2842 62.6729 60.7578 62.9023 61.2852 63.0586C61.8125 63.2148 62.3984 63.293 63.043 63.293C63.6777 63.293 64.2637 63.21 64.8008 63.0439C65.3477 62.8877 65.8408 62.6631 66.2803 62.3701C66.8271 62.0088 67.2959 61.5547 67.6865 61.0078C68.0771 60.4609 68.3896 59.8506 68.624 59.1768C68.8291 58.6104 68.9854 57.9951 69.0928 57.3311C69.2002 56.667 69.2539 55.9688 69.2539 55.2363ZM65.7529 54.9287V55.2363C65.7529 55.6758 65.7285 56.1006 65.6797 56.5107C65.6309 56.9209 65.5576 57.3018 65.46 57.6533C65.3428 58.1221 65.1719 58.5469 64.9473 58.9277C64.7324 59.2988 64.4541 59.6064 64.1123 59.8506C63.8584 60.0264 63.5703 60.168 63.248 60.2754C62.9258 60.373 62.5645 60.4219 62.1641 60.4219C61.7246 60.4219 61.3242 60.3682 60.9629 60.2607C60.6113 60.1436 60.2988 59.9873 60.0254 59.792C59.7812 59.6064 59.5615 59.3965 59.3662 59.1621C59.1807 58.918 59.0195 58.6494 58.8828 58.3564V51.7939C59 51.54 59.1367 51.3057 59.293 51.0908C59.459 50.8662 59.6445 50.6709 59.8496 50.5049C60.1328 50.2607 60.4648 50.0752 60.8457 49.9482C61.2266 49.8115 61.6562 49.7432 62.1348 49.7432C62.5254 49.7432 62.877 49.7871 63.1895 49.875C63.502 49.9629 63.7803 50.0947 64.0244 50.2705C64.3955 50.5244 64.6885 50.8369 64.9033 51.208C65.1279 51.5693 65.3086 51.9746 65.4453 52.4238C65.543 52.7949 65.6162 53.1953 65.665 53.625C65.7236 54.0449 65.7529 54.4795 65.7529 54.9287ZM83.4629 63H87.0371V62.751C86.8418 62.3408 86.6904 61.8525 86.583 61.2861C86.4854 60.71 86.4365 60.0654 86.4365 59.3525V52.3066C86.4365 51.4082 86.2705 50.6172 85.9385 49.9336C85.6064 49.2402 85.1475 48.6689 84.5615 48.2197C83.9756 47.7705 83.2773 47.4336 82.4668 47.209C81.666 46.9746 80.8018 46.8574 79.874 46.8574C78.8389 46.8574 77.916 46.9941 77.1055 47.2676C76.3047 47.5312 75.626 47.8926 75.0693 48.3516C74.5127 48.8008 74.0879 49.3184 73.7949 49.9043C73.502 50.4902 73.3506 51.1006 73.3408 51.7354H76.8564C76.8564 51.4326 76.9102 51.1494 77.0176 50.8857C77.1348 50.6123 77.3105 50.3828 77.5449 50.1973C77.7793 49.9922 78.0723 49.8311 78.4238 49.7139C78.7852 49.5967 79.2051 49.5381 79.6836 49.5381C80.2109 49.5381 80.6748 49.6064 81.0752 49.7432C81.4854 49.8701 81.832 50.0557 82.1152 50.2998C82.3789 50.5439 82.5791 50.832 82.7158 51.1641C82.8623 51.4961 82.9355 51.8672 82.9355 52.2773V53.3467H80.3867C79.2441 53.3467 78.2188 53.4541 77.3105 53.6689C76.4121 53.8838 75.6553 54.1963 75.04 54.6064C74.376 55.0459 73.8682 55.6025 73.5166 56.2764C73.1748 56.9404 73.0039 57.707 73.0039 58.5762C73.0039 59.25 73.1357 59.8799 73.3994 60.4658C73.6729 61.042 74.0488 61.5352 74.5273 61.9453C75.0156 62.3652 75.5967 62.6973 76.2705 62.9414C76.9541 63.1758 77.7061 63.293 78.5264 63.293C79.0342 63.293 79.5078 63.2441 79.9473 63.1465C80.3867 63.0488 80.7969 62.9121 81.1777 62.7363C81.5586 62.5703 81.9004 62.375 82.2031 62.1504C82.5156 61.916 82.7939 61.6719 83.0381 61.418C83.0869 61.7207 83.1406 62.0137 83.1992 62.2969C83.2676 62.5703 83.3555 62.8047 83.4629 63ZM79.2002 60.4805C78.751 60.4805 78.3604 60.4268 78.0283 60.3193C77.6963 60.2021 77.418 60.0459 77.1934 59.8506C76.9688 59.6553 76.7979 59.4209 76.6807 59.1475C76.5635 58.8643 76.5049 58.5615 76.5049 58.2393C76.5049 57.8486 76.5732 57.4971 76.71 57.1846C76.8564 56.8721 77.0762 56.6035 77.3691 56.3789C77.7012 56.1152 78.1455 55.915 78.7021 55.7783C79.2588 55.6318 79.918 55.5586 80.6797 55.5586H82.9355V58.4883C82.8086 58.7422 82.6279 58.9863 82.3936 59.2207C82.1592 59.4551 81.8809 59.665 81.5586 59.8506C81.2363 60.0361 80.875 60.1875 80.4746 60.3047C80.084 60.4219 79.6592 60.4805 79.2002 60.4805Z" fill="#EEDAEA"/>
</svg>
